<svg width="115" height="82" viewBox="0 0 115 82" fill="none" xmlns="http://www.w3.org/2000/svg">
<path d="M100.257 32.4834C102.006 40.6915 98.9451 48.9461 91.7469 55.4313C84.5488 61.9165 73.8034 66.1012 61.8748 67.0646C49.9461 68.0281 37.8112 65.6915 28.1397 60.5689C18.4681 55.4462 12.0522 47.9571 10.3032 39.7491L55.2803 36.1163L100.257 32.4834Z" fill="#F5E6C8" stroke="#F1C110" stroke-width="10"/>
<path d="M102.877 36.4548C101.429 32.3393 98.8199 28.4283 95.2 24.9452C91.58 21.4621 87.0196 18.475 81.7791 16.1545C76.5386 13.8341 70.7207 12.2257 64.6575 11.4212C58.5943 10.6166 52.4046 10.6318 46.4418 11.4657C40.479 12.2996 34.8598 13.9359 29.9052 16.2813C24.9505 18.6266 20.7573 21.6351 17.5651 25.1348C14.3729 28.6346 12.2441 32.5571 11.3003 36.6785C10.3566 40.7999 10.6162 45.0393 12.0646 49.1549L57.4707 42.8048L102.877 36.4548Z" fill="#F5E6C8" stroke="#8B2E0A" stroke-width="10"/>
<path d="M50.246 18.266C49.4999 16.4886 47.7048 14.9659 45.2546 14.032C42.8044 13.0982 39.8991 12.8294 37.1763 13.2847C36.7621 13.3549 36.3551 13.441 35.9574 13.5427C34.6586 12.4803 32.9172 11.6831 30.9465 11.2489C28.9759 10.8146 26.8617 10.7621 24.8633 11.0978C22.8649 11.4335 21.0692 12.1428 19.6963 13.1388C18.3234 14.1348 17.433 15.3741 17.1344 16.7048C16.7121 16.7411 16.2937 16.7936 15.8816 16.8621C13.5316 17.2579 11.4733 18.1685 10.0507 19.4416C8.6281 20.7147 7.92722 22.2733 8.06517 23.8571C8.20312 25.4409 9.17153 26.954 10.8087 28.1436C12.4458 29.3332 14.6525 30.1273 17.0602 30.3932L19.484 36.1927C19.6767 36.6538 20.1419 37.0489 20.7774 37.2911C21.4129 37.5333 22.1665 37.6028 22.8724 37.4842L47.2091 33.3958C47.9151 33.2772 48.5156 32.9802 48.8785 32.5703C49.2414 32.1604 49.3371 31.6711 49.1444 31.21L46.7206 25.4105C48.3097 24.5778 49.488 23.4603 50.1135 22.1927C50.739 20.9251 50.785 19.5614 50.246 18.266ZM46.8628 31.5933C46.8903 31.6591 46.8767 31.729 46.8248 31.7876C46.773 31.8462 46.6872 31.8886 46.5863 31.9055L22.2496 35.9939C22.1488 36.0109 22.0411 36.0009 21.9503 35.9663C21.8595 35.9318 21.7931 35.8753 21.7655 35.8094L19.5369 30.4769C20.1961 30.449 20.8489 30.3811 21.487 30.2742L42.7816 26.6969C43.4195 26.5894 44.0396 26.4434 44.6341 26.2607L46.8628 31.5933ZM42.1588 25.2066L39.0578 25.7276L38.9496 22.4842C38.9464 22.3832 38.9126 22.2833 38.8502 22.1902C38.7879 22.097 38.6981 22.0126 38.586 21.9415C38.4739 21.8705 38.3418 21.8144 38.1971 21.7762C38.0524 21.7381 37.8981 21.7188 37.7428 21.7194C37.5875 21.72 37.4344 21.7405 37.2922 21.7798C37.15 21.819 37.0214 21.8762 36.9139 21.948C36.8064 22.0199 36.722 22.105 36.6656 22.1986C36.6091 22.2922 36.5817 22.3924 36.5849 22.4934L36.7039 26.123L32.6523 26.8037L31.3028 23.5748C31.2202 23.3772 31.0208 23.2079 30.7485 23.1041C30.4762 23.0003 30.1532 22.9705 29.8506 23.0213C29.5481 23.0722 29.2907 23.1994 29.1352 23.3751C28.9796 23.5508 28.9387 23.7605 29.0213 23.9581L30.3707 27.1869L26.319 27.8676L23.5876 24.6769C23.5115 24.5881 23.4094 24.5097 23.2873 24.4461C23.1652 24.3825 23.0254 24.335 22.8758 24.3063C22.7263 24.2776 22.5699 24.2683 22.4157 24.2789C22.2616 24.2895 22.1125 24.3197 21.9772 24.368C21.8418 24.4162 21.7227 24.4814 21.6268 24.5599C21.5309 24.6385 21.46 24.7288 21.4181 24.8256C21.3762 24.9225 21.3641 25.0241 21.3827 25.1246C21.4012 25.2251 21.4499 25.3225 21.526 25.4113L23.9652 28.263L20.8642 28.784C18.7463 29.1398 16.4855 28.9315 14.5791 28.2049C12.6727 27.4783 11.277 26.293 10.6988 24.9097C10.1207 23.5263 10.4075 22.0583 11.4963 20.8286C12.5851 19.5989 14.3866 18.7081 16.5044 18.3523C16.6946 18.3204 16.8847 18.2885 17.0653 18.2727C17.1193 18.6972 17.2326 19.1181 17.4037 19.5303C17.4863 19.7279 17.6857 19.8973 17.958 20.0011C18.2304 20.1049 18.5534 20.1346 18.8559 20.0838C19.1585 20.033 19.4158 19.9057 19.5714 19.73C19.7269 19.5544 19.7679 19.3446 19.6853 19.147C19.1071 17.7637 19.394 16.2957 20.4828 15.066C21.5715 13.8362 23.373 12.9455 25.4909 12.5897C27.6088 12.2339 29.8696 12.4422 31.776 13.1688C33.6823 13.8954 35.0781 15.0807 35.6563 16.464C35.7389 16.6616 35.9382 16.831 36.2106 16.9348C36.4829 17.0386 36.8059 17.0683 37.1085 17.0175C37.411 16.9667 37.6684 16.8394 37.8239 16.6637C37.9794 16.4881 38.0204 16.2783 37.9378 16.0807C37.7646 15.6689 37.5342 15.2676 37.2496 14.8819C37.4366 14.8425 37.6127 14.8063 37.7991 14.775C39.917 14.4192 42.1778 14.6275 44.0841 15.3541C45.9905 16.0806 47.3863 17.266 47.9644 18.6493C48.5426 20.0326 48.2557 21.5006 47.1669 22.7304C46.0782 23.9601 44.2767 24.8508 42.1588 25.2066Z" fill="#8B2E0A" stroke="#F6B724" stroke-width="2"/>
<path d="M22.2626 43.768C22.1294 44.0802 21.8865 44.3531 21.5342 44.5865C21.1871 44.8191 20.7927 44.9728 20.351 45.0476C19.9145 45.1215 19.5273 45.145 19.1891 45.118C18.9278 45.4203 18.592 45.6062 18.1818 45.6757L18.1228 45.5356C18.3258 45.496 18.4617 45.444 18.5304 45.3797C18.6064 45.3194 18.6465 45.2073 18.6507 45.0434C18.3296 44.9766 18.0303 44.8746 17.7528 44.7374C17.4732 44.5951 17.2738 44.4762 17.1546 44.3806C17.0407 44.284 16.9796 44.2259 16.9713 44.2062L17.0916 44.1306C17.0999 44.1502 17.1562 44.2039 17.2608 44.2915C17.3705 44.3782 17.5553 44.4891 17.8149 44.6241C18.0778 44.7534 18.3572 44.8482 18.6531 44.9087C18.6542 44.7242 18.6247 44.5001 18.5643 44.2365L17.6701 40.3281C17.1398 40.46 16.6985 40.6427 16.3461 40.8762C16.8527 41.1695 17.2096 41.5619 17.4166 42.0534C17.6071 42.5056 17.6288 42.8916 17.4818 43.2114C17.338 43.5254 17.1084 43.7091 16.7929 43.7625C16.4774 43.816 16.1982 43.7685 15.9554 43.62C15.7106 43.4667 15.5364 43.2671 15.4329 43.0214C15.2714 42.638 15.2359 42.2596 15.3265 41.8862C15.415 41.5078 15.6556 41.1696 16.0483 40.8714C15.5853 40.6549 15.0512 40.5505 14.4461 40.5583L14.4186 40.4128C15.1004 40.4132 15.6853 40.5379 16.1733 40.787C16.7082 40.4384 17.433 40.1866 18.348 40.0316C19.2682 39.8757 20.0741 39.9498 20.7655 40.254C21.4549 40.5532 21.9466 41.0518 22.2406 41.7497C22.5408 42.4624 22.5482 43.1352 22.2626 43.768ZM20.1689 44.9363C20.6684 44.8517 21.0849 44.6969 21.4183 44.4719C21.7538 44.2518 21.986 43.9939 22.1149 43.6983C22.3845 43.0944 22.3837 42.4706 22.1125 41.8267C21.8392 41.1779 21.3999 40.71 20.7944 40.4228C20.189 40.1357 19.4731 40.0411 18.6467 40.1389C19.0744 41.8095 19.3646 43.0136 19.5176 43.7512C19.6134 44.2194 19.5394 44.6322 19.2955 44.9894C19.5991 45.0012 19.8902 44.9835 20.1689 44.9363ZM15.5827 42.996C15.6676 43.1975 15.8115 43.3653 16.0145 43.4995C16.2207 43.6278 16.4604 43.6688 16.7339 43.6225C17.0126 43.5752 17.2095 43.4208 17.3246 43.1591C17.4397 42.8973 17.4395 42.5893 17.3241 42.235C17.3024 42.1702 17.2781 42.1059 17.2512 42.042C17.0649 41.5996 16.7189 41.2396 16.2132 40.9619C15.8248 41.2436 15.5849 41.5633 15.4933 41.9211C15.3997 42.274 15.4295 42.6323 15.5827 42.996ZM24.1245 40.7908C24.7923 40.6777 25.2308 40.8693 25.4399 41.3657C25.5703 41.6754 25.5119 41.938 25.2647 42.1537C25.0207 42.3635 24.6106 42.5199 24.0342 42.6228C24.0982 42.8015 24.152 42.9425 24.1954 43.0457C24.2886 43.2669 24.4105 43.4226 24.5613 43.5129C24.7152 43.5975 24.8736 43.6259 25.0366 43.5983C25.1996 43.5707 25.3344 43.5163 25.4411 43.435C25.5529 43.3529 25.6318 43.2658 25.6775 43.1738C25.7212 43.0769 25.7533 42.9793 25.7739 42.881C25.8107 42.701 25.8198 42.5889 25.8012 42.5446L25.968 42.5796C25.9854 42.6609 25.9826 42.7746 25.9596 42.9206C25.9345 43.0618 25.8923 43.1822 25.8328 43.2818C25.7734 43.3813 25.6672 43.4836 25.5142 43.5885C25.3591 43.6885 25.1685 43.7576 24.9424 43.7959C24.5165 43.8681 24.1537 43.8295 23.8542 43.6801C23.5579 43.5249 23.3404 43.2827 23.2016 42.9534C22.9553 42.3685 22.9179 41.8851 23.0894 41.5032C23.2589 41.1165 23.6039 40.879 24.1245 40.7908ZM25.2427 41.3991C25.1743 41.237 25.0659 41.1132 24.9172 41.0277C24.7718 40.9365 24.5965 40.9083 24.3914 40.943C24.1916 40.9769 24.042 41.1233 23.9427 41.3824C23.8486 41.6406 23.8632 41.9962 23.9864 42.4492C25.0413 42.2653 25.46 41.9152 25.2427 41.3991ZM28.0954 42.9064C28.0623 43.0015 27.9997 43.0937 27.9078 43.183C27.8211 43.2714 27.6831 43.3317 27.4938 43.3637C27.3044 43.3958 27.1203 43.3665 26.9412 43.2757C26.7621 43.1849 26.6291 43.0363 26.5421 42.8299C26.5256 42.7905 26.5039 42.7257 26.4772 42.6355L25.8719 39.8945C25.7616 39.3919 25.7445 39.0235 25.8205 38.7895C25.9018 38.5545 26.0792 38.4139 26.3526 38.3676C26.5419 38.3355 26.725 38.3756 26.9019 38.4878C27.084 38.5992 27.2319 38.79 27.3458 39.0603C27.4597 39.3306 27.5091 39.7356 27.4942 40.2753C27.4845 40.814 27.5283 41.1989 27.6256 41.4299L27.4837 41.454C27.3739 41.1935 27.3281 40.8037 27.346 40.2846C27.3619 39.7606 27.3088 39.3536 27.1866 39.0636C27.1121 38.8866 27.0032 38.7418 26.86 38.6292C26.722 38.5157 26.59 38.4696 26.4638 38.4909C26.5123 38.6196 26.6625 39.2103 26.9144 40.2629C27.1694 41.3097 27.3944 42.2853 27.5894 43.1896C27.7366 43.1646 27.8433 43.0702 27.9095 42.9063C27.9757 42.7424 28.005 42.5847 27.9976 42.4332L27.9912 42.1974L28.158 42.2323C28.1712 42.3038 28.1716 42.4117 28.1591 42.556C28.1498 42.6944 28.1286 42.8112 28.0954 42.9064ZM30.3345 42.5982C30.2512 42.8019 30.0913 42.9237 29.8547 42.9638C29.6181 43.0039 29.4076 42.979 29.2232 42.8891C29.0442 42.7983 28.9163 42.662 28.8397 42.4802C28.8128 42.4163 28.742 42.1413 28.6274 41.6552L28.3318 40.2914L28.0005 40.3475L27.9604 40.2121L28.2996 40.1546C28.6887 40.0887 28.9691 40.0254 29.1407 39.9648L29.2418 39.9239L29.8714 42.803C30.023 42.7615 30.1255 42.6705 30.1789 42.5298L30.3345 42.5982ZM28.218 39.3391C28.0641 39.2546 27.9561 39.1386 27.894 38.9911C27.8319 38.8437 27.8343 38.709 27.9013 38.5871C27.9662 38.4602 28.0775 38.3835 28.2352 38.3567C28.393 38.33 28.5498 38.3614 28.7058 38.4508C28.865 38.5344 28.9756 38.65 29.0377 38.7974C29.0998 38.9449 29.0948 39.08 29.0226 39.2028C28.9556 39.3247 28.8433 39.3991 28.6855 39.4258C28.5278 39.4525 28.3719 39.4236 28.218 39.3391ZM32.1213 40.858C31.9673 40.7734 31.8593 40.6575 31.7972 40.51C31.7351 40.3626 31.7375 40.2279 31.8045 40.1059C31.8694 39.9791 31.9807 39.9023 32.1384 39.8756C32.1858 39.8676 32.2504 39.8672 32.3323 39.8744C32.1599 39.7193 31.937 39.6649 31.6636 39.7112C31.3901 39.7575 31.2166 39.9607 31.1429 40.3207C31.0692 40.6807 31.1669 41.1802 31.436 41.8192C31.5292 42.0404 31.6511 42.1961 31.8019 42.2864C31.9558 42.3709 32.1142 42.3994 32.2772 42.3718C32.4402 42.3442 32.5751 42.2897 32.6817 42.2085C32.7935 42.1263 32.8724 42.0393 32.9181 41.9473C32.9618 41.8504 32.9939 41.7528 33.0145 41.6545C33.0513 41.4745 33.0604 41.3624 33.0418 41.3181L33.2086 41.353C33.226 41.4344 33.2232 41.5481 33.2002 41.6941C33.1751 41.8353 33.1329 41.9556 33.0734 42.0552C33.014 42.1548 32.9078 42.2571 32.7548 42.362C32.5997 42.462 32.4091 42.5311 32.183 42.5694C31.7571 42.6416 31.3943 42.603 31.0948 42.4536C30.7985 42.2984 30.581 42.0562 30.4422 41.7269C30.1959 41.142 30.1585 40.6586 30.33 40.2767C30.5047 39.8891 30.8603 39.6498 31.3966 39.5589C31.7595 39.4975 32.0744 39.5363 32.3414 39.6754C32.6084 39.8144 32.8009 40.024 32.919 40.3042C32.9935 40.4811 32.9926 40.6261 32.9162 40.7391C32.8451 40.8512 32.7333 40.9201 32.5808 40.946C32.4284 40.9718 32.2752 40.9425 32.1213 40.858ZM35.4414 41.7331C35.3582 41.9368 35.1982 42.0586 34.9616 42.0987C34.725 42.1388 34.5145 42.1139 34.3302 42.024C34.1511 41.9332 34.0232 41.7969 33.9466 41.6151C33.9197 41.5512 33.849 41.2762 33.7344 40.7901L33.4388 39.4263L33.1075 39.4824L33.0674 39.347L33.4065 39.2896C33.7957 39.2236 34.076 39.1604 34.2476 39.0997L34.3488 39.0589L34.9784 41.9379C35.1299 41.8965 35.2324 41.8054 35.2858 41.6647L35.4414 41.7331ZM33.325 38.474C33.1711 38.3895 33.0631 38.2735 33.0009 38.1261C32.9388 37.9786 32.9413 37.8439 33.0082 37.722C33.0731 37.5952 33.1844 37.5184 33.3422 37.4917C33.4999 37.4649 33.6568 37.4963 33.8127 37.5857C33.9719 37.6693 34.0825 37.7849 34.1447 37.9323C34.2068 38.0798 34.2017 38.2149 34.1295 38.3377C34.0626 38.4597 33.9502 38.534 33.7925 38.5607C33.6347 38.5874 33.4789 38.5585 33.325 38.474ZM37.2426 41.7123C36.8377 41.7809 36.4908 41.7397 36.2018 41.5885C35.9107 41.4324 35.7051 41.2119 35.585 40.9268C35.4629 40.6368 35.3856 40.3866 35.3534 40.1762C35.3242 39.9599 35.3334 39.7478 35.381 39.5396C35.4264 39.3265 35.5526 39.1446 35.7595 38.9937C35.9716 38.8419 36.2669 38.7339 36.6455 38.6698C37.0294 38.6048 37.3669 38.6503 37.658 38.8064C37.9522 38.9566 38.1687 39.1964 38.3074 39.5257C38.5434 40.086 38.5735 40.5654 38.3977 40.9638C38.2271 41.3613 37.8421 41.6108 37.2426 41.7123ZM36.5757 41.0117C36.7413 41.405 36.9451 41.5811 37.187 41.5401C37.4341 41.4982 37.5695 41.2647 37.5932 40.8394C37.6201 40.4083 37.5186 39.92 37.2888 39.3744C37.1149 38.9615 36.907 38.7756 36.6651 38.8166C36.4285 38.8566 36.29 39.0828 36.2496 39.4952C36.2123 39.9017 36.3211 40.4072 36.5757 41.0117ZM38.8011 38.4626C38.6749 38.484 38.5724 38.5751 38.4936 38.7359L38.3381 38.6675C38.3459 38.5924 38.4015 38.5172 38.5049 38.4417C38.6084 38.3663 38.7363 38.3156 38.8888 38.2898C39.3673 38.2087 39.6915 38.3697 39.8613 38.7728C39.9337 38.9448 40.0158 39.26 40.1075 39.7184C40.1991 40.1768 40.274 40.4748 40.3319 40.6124C40.421 40.8238 40.5733 40.9112 40.7889 40.8747C40.9414 40.8488 41.0534 40.7403 41.125 40.5492C41.2018 40.3571 41.2307 40.1047 41.2117 39.792L40.8256 38.0328C41.2147 37.9669 41.4925 37.9041 41.6588 37.8443L41.752 37.8048L42.3974 40.6812C42.549 40.6397 42.6515 40.5486 42.7049 40.4079L42.8605 40.4764C42.7772 40.68 42.6173 40.8019 42.3807 40.842C42.144 40.8821 41.9372 40.8592 41.7602 40.7733C41.5832 40.6875 41.4507 40.5467 41.3626 40.351C41.3157 40.8012 41.0766 41.0629 40.6454 41.1359C40.3351 41.1885 40.0591 41.1484 39.8173 41.0156C39.5733 40.8778 39.3903 40.664 39.2682 40.374C39.204 40.2216 39.1307 39.9207 39.0485 39.4713C38.9641 39.0169 38.8817 38.6807 38.8011 38.4626ZM44.0827 40.3483C44.6033 40.2601 44.7125 39.8572 44.4102 39.1396C44.3357 38.9627 44.2188 38.7587 44.0595 38.5276C43.9054 38.2957 43.8107 38.1511 43.7754 38.0939C43.5851 38.4579 43.3035 38.7057 42.9308 38.8373L42.8563 38.6604C43.2017 38.5176 43.4718 38.256 43.6664 37.8754L43.654 37.8459C43.6043 37.728 43.5741 37.6094 43.5633 37.4901C43.5525 37.3708 43.5541 37.281 43.5681 37.2207L43.5892 37.1303L43.7785 37.0982C43.8696 37.3144 43.9902 37.5073 44.1404 37.6767C44.2886 37.8411 44.4312 37.9723 44.5682 38.0702C44.7031 38.1632 44.8457 38.2944 44.9959 38.4638C45.1441 38.6283 45.2637 38.8186 45.3548 39.0349C45.5018 39.3839 45.482 39.6979 45.2953 39.977C45.1139 40.2552 44.826 40.4278 44.4316 40.4946C44.0373 40.5614 43.7023 40.5286 43.4269 40.3962C43.1567 40.2629 42.976 40.0882 42.8849 39.8719C42.7917 39.6507 42.7833 39.4837 42.8597 39.3707C42.934 39.2528 43.05 39.1805 43.2077 39.1537C43.3655 39.127 43.515 39.1543 43.6563 39.2357C43.8008 39.3113 43.9052 39.4253 43.9694 39.5776C44.0315 39.7251 44.0343 39.8589 43.9779 39.979C43.9214 40.0992 43.8144 40.1726 43.6566 40.1993C43.5882 40.2109 43.5131 40.2131 43.4312 40.2059C43.6131 40.3436 43.8303 40.3911 44.0827 40.3483ZM49.0377 37.1867C49.2344 37.6537 49.6314 37.9208 50.2287 37.9881C50.4639 38.0115 50.6519 38.0165 50.7928 38.0032C50.9368 37.984 51.012 37.9687 51.0184 37.957L51.0915 38.1105L51.0442 38.1185C50.4553 38.2183 49.9503 38.1564 49.5294 37.9328C49.2278 37.7785 49.0087 37.5392 48.872 37.2148C48.5781 36.5169 48.7447 35.9094 49.372 35.3924C50.0045 34.8745 51.0386 34.494 52.4741 34.2508C53.2261 34.1234 53.7866 34.1101 54.1558 34.2108C54.525 34.3115 54.7696 34.5044 54.8897 34.7895C54.9849 35.0156 55.006 35.2595 54.9528 35.5213C54.8977 35.7781 54.8151 36.0501 54.705 36.3373C54.595 36.6245 54.5368 36.8608 54.5304 37.0462L54.9485 36.9754L54.9886 37.1107L54.5311 37.1882C54.5429 37.3232 54.5705 37.4422 54.6139 37.5454L54.4483 37.5735C54.3986 37.4555 54.3657 37.3374 54.3497 37.219L53.3479 37.3887L53.5456 38.2793C53.6588 38.8289 53.5682 39.2892 53.2738 39.6602C52.9815 40.0362 52.5935 40.2652 52.1097 40.3472L52.0476 40.1997C52.4031 40.1342 52.6018 40.0242 52.6437 39.8697C52.6909 39.7142 52.6517 39.3602 52.5259 38.8075L52.2358 37.5771L51.8335 37.6452L51.7934 37.5098L52.2036 37.4403L51.5579 34.6035C50.5151 34.8696 49.7754 35.2267 49.3387 35.6745C48.8999 36.1174 48.7996 36.6215 49.0377 37.1867ZM54.7004 34.8216C54.4933 34.33 53.793 34.1854 52.5993 34.3876C52.9696 35.8151 53.2084 36.7699 53.3157 37.2519L54.349 37.0769C54.3492 36.8768 54.4017 36.6336 54.5064 36.3473C54.6091 36.056 54.688 35.782 54.7432 35.5252C54.8037 35.2674 54.7894 35.0329 54.7004 34.8216ZM57.7397 38.2403C57.3348 38.3089 56.9878 38.2676 56.6988 38.1164C56.4077 37.9604 56.2022 37.7398 56.0821 37.4547C55.9599 37.1647 55.8827 36.9145 55.8504 36.7041C55.8213 36.4879 55.8305 36.2757 55.878 36.0675C55.9235 35.8545 56.0497 35.6725 56.2565 35.5216C56.4686 35.3698 56.764 35.2619 57.1426 35.1977C57.5265 35.1327 57.8639 35.1782 58.155 35.3343C58.4493 35.4845 58.6658 35.7243 58.8045 36.0536C59.0405 36.6139 59.0706 37.0933 58.8948 37.4917C58.7242 37.8892 58.3391 38.1387 57.7397 38.2403ZM57.0728 37.5397C57.2384 37.9329 57.4422 38.109 57.684 38.068C57.9312 38.0262 58.0666 37.7926 58.0903 37.3673C58.1171 36.9362 58.0157 36.4479 57.7859 35.9023C57.612 35.4895 57.4041 35.3035 57.1622 35.3445C56.9255 35.3846 56.787 35.6108 56.7466 36.0231C56.7094 36.4296 56.8181 36.9351 57.0728 37.5397ZM61.2213 37.6505C60.8164 37.7191 60.4695 37.6778 60.1805 37.5267C59.8894 37.3706 59.6838 37.15 59.5637 36.865C59.4416 36.575 59.3644 36.3248 59.3321 36.1143C59.303 35.8981 59.3122 35.6859 59.3597 35.4778C59.4052 35.2647 59.5313 35.0827 59.7382 34.9318C59.9503 34.78 60.2457 34.6721 60.6243 34.608C61.0081 34.5429 61.3456 34.5884 61.6367 34.7445C61.9309 34.8948 62.1474 35.1345 62.2861 35.4639C62.5222 36.0242 62.5522 36.5035 62.3764 36.9019C62.2058 37.2994 61.8208 37.5489 61.2213 37.6505ZM60.5544 36.9499C60.72 37.3431 60.9238 37.5192 61.1657 37.4782C61.4128 37.4364 61.5482 37.2028 61.5719 36.7775C61.5988 36.3465 61.4973 35.8581 61.2675 35.3126C61.0936 34.8997 60.8857 34.7137 60.6438 34.7547C60.4072 34.7948 60.2687 35.021 60.2283 35.4333C60.1911 35.8398 60.2998 36.3453 60.5544 36.9499ZM66.2016 36.8069C65.7389 36.8852 65.4089 36.7437 65.2115 36.3822C65.1354 36.79 64.9186 37.0242 64.561 37.0848C64.2034 37.1453 63.8907 37.0983 63.6227 36.9436C63.3526 36.7839 63.1483 36.5395 63.0096 36.2102C62.7653 35.6302 62.72 35.1481 62.8736 34.764C63.0273 34.3799 63.3382 34.1482 63.8062 34.069C64.0744 34.0235 64.3142 34.0645 64.5256 34.192C64.6218 34.2599 64.6861 34.3122 64.7184 34.3489L64.2313 32.1091C64.0798 32.1506 63.9773 32.2417 63.9239 32.3824L63.7683 32.314C63.8516 32.1103 64.0115 31.9884 64.2481 31.9483C64.49 31.9074 64.7005 31.9323 64.8796 32.023C65.0586 32.1138 65.1916 32.2624 65.2786 32.4689C65.2952 32.5082 65.3168 32.573 65.3436 32.6632C65.6552 34.0585 65.9469 35.3861 66.2184 36.646C66.37 36.6046 66.4724 36.5135 66.5258 36.3728L66.6814 36.4412C66.5982 36.6449 66.4383 36.7668 66.2016 36.8069ZM64.0282 36.3615C64.1234 36.5876 64.2123 36.7384 64.2948 36.8139C64.3826 36.8886 64.4791 36.917 64.5842 36.8992C64.6947 36.8805 64.7853 36.8282 64.8563 36.7425C64.9272 36.6568 64.9741 36.554 64.9969 36.4343C65.0465 36.2311 65.0707 36.0611 65.0694 35.9244L64.8075 34.7208C64.7307 34.5653 64.6155 34.4321 64.4617 34.3212C64.3059 34.2055 64.1071 34.1681 63.8652 34.209C63.6969 34.2375 63.6365 34.4953 63.6838 34.9822C63.7312 35.4692 63.846 35.9289 64.0282 36.3615Z" fill="#8B2E0A"/>
<path d="M69.5404 21.4865C69.4819 21.4273 69.41 21.3954 69.3395 21.396C68.1618 20.7333 66.882 21.8991 66.2482 22.8535C65.7364 23.6577 65.7752 24.6335 65.4324 25.4552C65.3291 25.7008 65.2111 25.94 65.0792 26.1716C64.9914 26.3265 64.8989 26.4788 64.8016 26.628C64.7052 26.777 64.6051 26.9226 64.5039 27.0639C64.4041 27.2022 64.302 27.3389 64.1977 27.4739C63.9004 27.8589 63.5032 28.1772 63.0538 28.3654C62.89 28.4337 62.6011 28.5565 62.4859 28.3673C62.4148 28.2509 62.3637 28.149 62.2538 28.0634C62.0831 27.93 61.822 27.8998 61.6493 28.038C61.4615 28.1887 61.4516 28.4746 61.4689 28.6943C61.5094 29.2092 61.9212 29.6548 62.3771 29.9385C62.5223 30.0285 62.6759 30.1043 62.8356 30.165C64.7142 30.8449 66.5637 29.5999 67.9898 28.4758C68.159 28.3313 68.3235 28.1816 68.4831 28.0266C68.9627 27.5633 69.4048 27.0593 69.8109 26.54C69.9553 26.3663 70.0961 26.191 70.2334 26.0141C70.3614 25.8229 70.4755 25.6227 70.5746 25.4151C70.6747 25.2046 70.7571 24.9861 70.821 24.7618C71.1878 23.4853 70.7263 22.0838 69.5402 21.4859" fill="#EC1C24"/>
<path d="M62.8642 30.1593C63.5833 30.4198 64.2986 30.3974 64.9874 30.2077C65.0245 30.1684 65.0611 30.1281 65.0969 30.0868C65.2544 29.9053 65.4136 29.7162 65.5716 29.5211C65.7316 29.3236 65.887 29.1224 66.0376 28.9177C66.1896 28.7102 66.3355 28.4983 66.4751 28.2822C66.6843 27.959 66.8741 27.6237 67.0435 27.2781C67.6045 26.1219 67.6282 24.7112 68.4326 23.5932C68.8726 23.0072 69.4977 22.3722 70.2009 21.9372C70.0159 21.7522 69.8025 21.598 69.5689 21.4802C69.5102 21.4209 69.4386 21.3892 69.3679 21.3896C68.1895 20.7272 66.9104 21.8931 66.2762 22.8471C65.7645 23.6516 65.8034 24.6275 65.4609 25.4487C65.3575 25.6944 65.2396 25.9336 65.1076 26.1651C65.0195 26.3199 64.9269 26.4721 64.8301 26.6216C64.7341 26.7691 64.6347 26.9144 64.5319 27.0573C64.4321 27.1957 64.3301 27.3324 64.2258 27.4674C63.9285 27.8524 63.5308 28.1707 63.0823 28.3587C62.918 28.4272 62.6295 28.5499 62.5143 28.3607C62.4429 28.2443 62.3917 28.1425 62.2814 28.0565C62.1114 27.923 61.8495 27.8926 61.6772 28.0315C61.4895 28.1818 61.4795 28.4681 61.4968 28.6878C61.5373 29.2027 61.9493 29.6482 62.4054 29.9319C62.5506 30.0219 62.7042 30.0978 62.864 30.1585" fill="#C32129"/>
<path d="M70.4848 23.5627C70.5808 23.8216 70.5334 24.0863 70.474 24.3417C70.4647 24.3784 70.4555 24.4154 70.4466 24.4526C70.31 24.8371 70.1454 25.22 69.8367 25.5115C69.8253 25.5149 69.8062 25.4959 69.8027 25.4843C69.8994 25.0863 70.1392 24.7415 70.1496 24.3389C70.1515 24.3023 70.1515 24.2661 70.1497 24.2302C70.1472 24.1943 70.1432 24.1585 70.1378 24.1229C70.0964 23.9218 69.904 23.6819 70.0904 23.5189C70.1664 23.443 70.2804 23.4817 70.3725 23.5088C70.4074 23.5229 70.4448 23.5408 70.4848 23.5627Z" fill="white"/>
<path d="M68.9281 21.0352C68.2287 21.0489 67.2768 21.2079 66.9043 21.8779C66.8292 22.0133 66.9497 22.1407 67.081 22.1493C67.5612 22.1808 68.1286 21.7923 68.5536 21.598C68.9918 21.3977 69.2405 21.7266 69.5796 21.9428C69.8777 22.1326 70.1925 22.1983 70.3559 22.5429L70.6575 22.3439C70.303 21.9582 70.1197 21.4686 69.6463 21.1988C69.3289 21.0177 68.8011 20.8852 68.4579 21.0649C68.186 21.2076 68.0956 21.5122 68.4045 21.6845C68.8497 21.9317 69.4289 21.8939 69.9218 21.928C70.1331 21.9428 70.1625 21.5775 69.9518 21.5581C69.3191 21.4991 68.6784 21.4211 68.0544 21.5841C67.9332 21.6157 67.8964 21.7679 67.9574 21.8655C68.2957 22.4077 69.1906 22.2158 69.7113 22.1584L69.6435 21.7935C69.5031 21.8299 69.3801 21.8854 69.2536 21.9543C69.2029 21.9864 69.1482 22.0116 69.0908 22.0291C69.0476 22.0446 68.7019 21.9342 68.7325 21.9087L68.4509 21.8114C68.4953 22.0345 68.4039 22.3349 68.639 22.4787C68.9103 22.6445 69.1449 22.4225 69.3216 22.2225C69.5095 22.0094 69.667 21.8783 69.7098 21.5853C69.751 21.297 69.6957 21.0915 69.3734 21.0845C69.437 21.1602 69.5011 21.2356 69.5655 21.3108C69.7084 20.7453 70.1117 20.2518 70.5492 19.8793C70.4678 19.786 70.3865 19.6927 70.3055 19.5994C69.7848 20.0823 69.2834 20.5774 68.8879 21.1703C68.771 21.3444 69.0145 21.4855 69.1587 21.4102C69.7576 21.0984 69.9585 20.3987 70.4846 20.0079C70.4027 19.9148 70.322 19.8214 70.2409 19.7281C69.8091 20.1384 69.1497 20.7095 69.3812 21.3792C69.4357 21.5358 69.6487 21.5488 69.7261 21.4052C70.0022 20.8919 70.3213 20.4097 70.6713 19.9444C70.8156 19.7527 70.536 19.5027 70.3906 19.6963C70.0216 20.187 69.6831 20.6954 69.3922 21.2364L69.7368 21.2621C69.5654 20.7671 70.2068 20.2748 70.521 19.9761C70.6751 19.8296 70.4461 19.5705 70.2768 19.6962C69.7531 20.085 69.5355 20.7939 68.9511 21.0985C69.0414 21.1786 69.1311 21.2589 69.2216 21.3389C69.5977 20.7759 70.0919 20.3057 70.5857 19.8477C70.7404 19.7039 70.5031 19.4303 70.341 19.5678C69.8267 20.0058 69.3681 20.5657 69.199 21.2329C69.1671 21.3573 69.2751 21.4567 69.3913 21.4588C69.3367 21.4578 69.299 21.6977 69.2594 21.7446C69.1912 21.8251 69.1092 21.8936 69.04 21.9747C68.7599 22.3068 68.8515 21.9199 68.8068 21.6939C68.7837 21.5814 68.6118 21.5243 68.5253 21.5968C68.2279 21.8436 68.3451 22.1179 68.6399 22.3054C69.0551 22.5692 69.3708 22.2496 69.7606 22.1489C69.965 22.0962 69.9017 21.7611 69.693 21.7841C69.3359 21.8235 68.4989 22.0274 68.269 21.6579C68.2367 21.7514 68.2036 21.8455 68.1715 21.9394C68.7254 21.7948 69.3105 21.8717 69.8733 21.924C69.883 21.8007 69.8929 21.6774 69.9032 21.5539C69.5606 21.5302 69.213 21.5213 68.8741 21.4624C68.766 21.4437 68.6518 21.4061 68.5624 21.3402C68.5543 21.4465 68.5967 21.4577 68.6913 21.374C68.8007 21.3363 68.9412 21.3678 69.0512 21.3861C69.7614 21.5045 69.9729 22.1506 70.4088 22.6248C70.531 22.7583 70.7891 22.5924 70.7101 22.4259C70.5738 22.1384 70.4047 21.9549 70.1225 21.8066C69.906 21.6935 69.711 21.5823 69.5156 21.4329C69.3801 21.3292 69.2246 21.2138 69.0558 21.1737C68.6881 21.086 68.3956 21.2701 68.0647 21.4074C67.7586 21.5344 67.4043 21.7978 67.0612 21.7753L67.2374 22.0463C67.5342 21.513 68.4002 21.4201 68.9452 21.4092C69.1888 21.4047 69.1687 21.0304 68.9276 21.0355" fill="#00A551"/>
<path d="M70.3022 19.5104C69.9218 19.8894 69.5258 20.2702 69.1879 20.6876C68.9759 20.9496 68.8873 21.3044 69.2578 21.4588C69.4562 21.5418 69.6081 21.2431 69.4087 21.1592C69.1936 21.0692 69.7693 20.5425 69.8361 20.4719C70.07 20.2215 70.31 19.9758 70.553 19.7334C70.7062 19.5804 70.4544 19.3592 70.302 19.5113" fill="#028D46"/>
<path d="M69.0306 21.0265C68.6715 21.0238 68.3314 21.1092 67.9822 21.1816C67.6719 21.2461 67.3461 21.3087 67.1298 21.5591C66.9881 21.7226 67.2391 21.9454 67.3814 21.7813C67.5512 21.5845 67.8457 21.5495 68.0873 21.5003C68.4079 21.4349 68.7176 21.3592 69.0467 21.3618C69.264 21.3633 69.2459 21.0284 69.0306 21.0265Z" fill="#028D46"/>
<path d="M68.5424 21.278C68.6635 21.2537 68.7887 21.2059 68.9141 21.2204C69.0045 21.231 69.0924 21.187 69.1136 21.0914C69.1306 21.0089 69.075 20.9026 68.9839 20.8925C68.7935 20.8703 68.6227 20.9224 68.4375 20.9591C68.3475 20.977 68.3046 21.0922 68.3306 21.1711C68.3616 21.2659 68.4526 21.2958 68.5424 21.278Z" fill="#028D46"/>
<path d="M69.0112 20.7701C68.5136 20.9126 68.0291 21.0723 67.5719 21.3178C67.3816 21.4197 67.5682 21.6984 67.7575 21.5971C68.1879 21.3663 68.6484 21.2226 69.1157 21.0888C69.3238 21.0295 69.2182 20.7111 69.0112 20.7701ZM69.2954 21.4012C69.5532 21.5434 69.7492 21.6186 69.9292 21.8657C70.1205 22.1283 70.29 22.3657 70.4191 22.668C70.504 22.8651 70.8231 22.7619 70.7379 22.563C70.5856 22.2069 70.3816 21.9174 70.1555 21.607C69.9594 21.3379 69.7285 21.2574 69.4461 21.1016C69.2563 20.9972 69.1065 21.2972 69.2954 21.4012Z" fill="#028D46"/>
<path d="M69.8356 21.4751C68.994 21.0098 68.0188 21.2771 67.1621 21.5573C66.9561 21.6247 67.0612 21.9429 67.2665 21.8759C68.0371 21.6236 68.9235 21.3543 69.6847 21.7747C69.874 21.8794 70.0249 21.5796 69.8356 21.4751Z" fill="#028D46"/>
<path d="M69.7595 21.7282C69.8281 21.7632 69.865 21.7785 69.8926 21.8296L70.0669 21.5726C70.0562 21.5714 70.0457 21.5693 70.0353 21.5664C69.9864 21.5547 70.0589 21.5777 70.0111 21.5585C69.9838 21.5466 69.9569 21.5336 69.9306 21.5195C69.8732 21.49 69.8174 21.4576 69.7569 21.4348C69.671 21.4028 69.5754 21.4211 69.5311 21.509C69.493 21.5841 69.5201 21.7022 69.6056 21.7344C69.7393 21.7847 69.8541 21.8756 69.9971 21.9007C70.1511 21.9276 70.2401 21.7719 70.1715 21.6438C70.1163 21.5399 70.0116 21.4799 69.9105 21.4286C69.8708 21.409 69.825 21.4057 69.7829 21.4196C69.7408 21.4334 69.7058 21.4632 69.6855 21.5026C69.6659 21.5424 69.6626 21.5883 69.6765 21.6305C69.6903 21.6727 69.7201 21.7078 69.7595 21.7282Z" fill="#028D46"/>
<path d="M69.8451 21.8568C69.932 21.968 70.0309 22.0693 70.1402 22.1588C70.2123 22.2154 70.3143 22.2151 70.3774 22.144C70.4357 22.0779 70.4339 21.9645 70.3628 21.9071C70.2748 21.8374 70.1947 21.7583 70.124 21.6711C70.0672 21.5995 69.9734 21.5703 69.8916 21.6242C69.8212 21.6718 69.7879 21.7855 69.8451 21.8568ZM70.4386 19.7258C70.4489 19.727 70.459 19.729 70.469 19.7319C70.451 19.7246 70.4503 19.7245 70.467 19.7318L70.4605 19.7274L70.4462 19.7104C70.4557 19.726 70.4545 19.7211 70.4412 19.6966C70.4457 19.7142 70.4455 19.7092 70.4387 19.6825C70.443 19.718 70.4461 19.6454 70.4383 19.6826C70.4469 19.6608 70.4477 19.6586 70.4405 19.6762C70.435 19.6885 70.4278 19.6996 70.4212 19.7107C70.3718 19.788 70.4195 19.8978 70.4947 19.9363C70.5826 19.9804 70.671 19.9388 70.7195 19.8621C70.7715 19.781 70.7877 19.6832 70.7591 19.5918C70.7255 19.4821 70.616 19.4165 70.509 19.3976C70.4188 19.382 70.3295 19.4349 70.3099 19.5265C70.2918 19.613 70.3492 19.7097 70.4386 19.7258Z" fill="#028D46"/>
<path d="M60.7888 22.8366C60.2773 22.723 59.8495 22.9657 59.443 23.1351C59.3653 23.1673 59.4075 23.2626 59.4774 23.301C59.4747 23.329 59.4878 23.3599 59.5242 23.3859C59.8997 23.6556 60.0923 23.9527 60.2453 24.3536C60.3984 24.7539 60.5769 25.1258 60.8816 25.4657C61.4601 26.1104 62.3352 26.5616 63.1263 26.5474C63.2077 26.5461 63.2281 26.4724 63.1865 26.403C63.0676 26.2023 62.9075 26.1003 62.7191 25.9699C62.4691 25.7983 62.4769 25.4687 62.468 25.2358C62.4498 24.7325 62.4826 24.2452 62.1729 23.7513C61.8693 23.2654 61.3119 22.9521 60.7888 22.8366Z" fill="#F05A2A"/>
<path d="M61.4693 23.6819C61.1525 23.5514 60.8487 23.6597 60.5688 23.7229C60.515 23.7349 60.5312 23.801 60.5723 23.8334C60.5672 23.851 60.5721 23.8724 60.5925 23.8931C60.8044 24.1091 60.8946 24.3223 60.9484 24.5975C61.0022 24.8727 61.0742 25.1323 61.2327 25.3853C61.5329 25.8655 62.0456 26.2543 62.5566 26.3341C62.6091 26.3425 62.6303 26.297 62.6117 26.2477C62.5576 26.1055 62.466 26.0219 62.359 25.9164C62.2176 25.7778 62.2598 25.5672 62.2805 25.416C62.3252 25.0899 62.4007 24.7796 62.2576 24.4267C62.1161 24.0795 61.7924 23.8153 61.4693 23.6819Z" fill="#F5EB35"/>
<path d="M65.0083 19.1681C64.6097 18.6483 64.0049 18.5366 63.4804 18.3721C63.3801 18.3409 63.344 18.466 63.3799 18.5583C63.3555 18.5832 63.3425 18.6234 63.3566 18.677C63.4995 19.2371 63.4447 19.6761 63.2696 20.1827C63.0943 20.6886 62.966 21.1876 62.9843 21.7576C63.02 22.8391 63.4953 23.9735 64.2635 24.5953C64.3421 24.6593 64.4218 24.6053 64.4382 24.5052C64.485 24.218 64.4139 23.9917 64.3378 23.7156C64.2367 23.3509 64.5085 23.0422 64.6879 22.8119C65.0734 22.3154 65.4968 21.8755 65.5976 21.1545C65.6966 20.4455 65.4154 19.6982 65.0082 19.1677" fill="#F05A2A"/>
<path d="M65.0291 20.6757C64.8733 20.3184 64.5389 20.1662 64.2594 19.9953C64.2058 19.9629 64.1668 20.03 64.1742 20.0886C64.1561 20.0995 64.1435 20.121 64.1438 20.1539C64.1462 20.4986 64.0511 20.7447 63.877 21.0127C63.7027 21.2801 63.5567 21.5504 63.4855 21.8827C63.3509 22.5136 63.4623 23.2383 63.8174 23.7088C63.854 23.7569 63.9076 23.7369 63.9311 23.6817C63.9999 23.5223 63.9915 23.3813 63.9868 23.2106C63.9808 22.985 64.1826 22.8457 64.3194 22.7374C64.6143 22.5059 64.9223 22.3123 65.0841 21.9098C65.2429 21.5132 65.188 21.0408 65.029 20.6752" fill="#F5EB35"/>
<path d="M61.4453 18.9558C61.0782 18.7035 60.6628 18.759 60.2883 18.7639C60.2169 18.7646 60.2196 18.8535 60.2625 18.9054C60.2518 18.9267 60.2522 18.9556 60.2727 18.9871C60.4836 19.3195 60.541 19.6154 60.535 19.9803C60.529 20.3452 60.5512 20.6952 60.6833 21.0604C60.9354 21.7528 61.4834 22.387 62.1123 22.6271C62.177 22.6517 62.2171 22.6001 62.2062 22.5317C62.1756 22.3357 62.0818 22.2044 61.9743 22.0417C61.8314 21.827 61.9422 21.5695 62.0095 21.3828C62.1543 20.9798 62.3349 20.6051 62.2476 20.1172C62.1619 19.6375 61.8214 19.2131 61.4453 18.9558Z" fill="#F05A2A"/>
<path d="M61.7776 19.9276C61.6008 19.7287 61.3521 19.7013 61.1353 19.65C61.0938 19.6407 61.083 19.6919 61.0995 19.7283C61.0906 19.7395 61.0873 19.7558 61.0942 19.7771C61.1681 20 61.1589 20.179 61.103 20.3897C61.0471 20.5986 61.0093 20.8052 61.034 21.0353C61.0797 21.4728 61.3054 21.9181 61.6346 22.1475C61.6687 22.1711 61.6993 22.1467 61.7028 22.1057C61.7136 21.9882 61.6785 21.8987 61.6394 21.7889C61.5879 21.6444 61.6889 21.5116 61.7546 21.4128C61.8965 21.2005 62.0544 21.0099 62.0741 20.7153C62.0931 20.4249 61.9574 20.1306 61.7776 19.9276Z" fill="#F5EB35"/>
<path d="M37.3074 56.295C37.9993 56.1888 38.485 55.9726 38.7645 55.6463C39.0505 55.319 39.1087 54.9344 38.9391 54.4925C38.8173 54.1751 38.6241 53.9082 38.3596 53.6918C38.1017 53.4743 37.8176 53.307 37.5075 53.1898C37.195 53.0665 36.8771 52.9472 36.5537 52.832C36.237 52.7159 35.9213 52.5567 35.6064 52.3546C35.2916 52.1525 35.0406 51.9076 34.8534 51.62C34.1893 51.544 33.6589 51.253 33.2623 50.7471C33.111 50.5528 32.9923 50.3437 32.9063 50.1196C32.8203 49.8956 32.767 49.6566 32.7463 49.4028C32.7139 48.9003 32.8224 48.5013 33.0719 48.206L33.2379 48.3387C33.0095 48.5979 32.9121 48.9621 32.9457 49.4315C32.9658 49.6656 33.0153 49.8854 33.0941 50.0908C33.173 50.2962 33.2812 50.4872 33.4188 50.6638C33.7513 51.0939 34.1946 51.3488 34.7485 51.4285C34.709 51.3621 34.6618 51.2573 34.6069 51.1141C34.2939 50.2988 34.3537 49.591 34.7861 48.9908C35.2186 48.3906 35.8862 48.0213 36.789 47.8827C37.3821 47.7917 37.915 47.8714 38.3879 48.1217C38.7938 48.3428 39.072 48.6494 39.2225 49.0415C39.3706 49.4274 39.3613 49.7847 39.1944 50.1135C39.0252 50.4361 38.7066 50.6332 38.2388 50.705C37.9818 50.7445 37.753 50.7302 37.5524 50.6621C37.3095 50.9564 36.9777 51.1918 36.5571 51.3684C36.7343 51.4665 37.1243 51.6373 37.7272 51.8809C38.3367 52.1234 38.8162 52.3728 39.1657 52.6289C39.5194 52.8778 39.7703 53.1952 39.9185 53.581C40.1908 54.2906 40.1186 54.9113 39.7018 55.4432C39.2915 55.974 38.6383 56.3083 37.7421 56.4458C36.8525 56.5823 36.1087 56.4988 35.5107 56.1951C34.9935 55.9384 34.6465 55.5797 34.4697 55.1191C34.2953 54.6648 34.3008 54.2521 34.4863 53.8809C34.6759 53.5025 35.0047 53.2774 35.4725 53.2056C35.9404 53.1338 36.3246 53.1803 36.6251 53.345C36.9232 53.5036 37.126 53.7229 37.2335 54.003C37.341 54.2831 37.3443 54.5462 37.2435 54.7923C37.1492 55.0375 36.957 55.1823 36.6671 55.2268C36.3772 55.2713 36.1131 55.2195 35.8749 55.0716C35.6594 54.9465 35.4987 54.7734 35.393 54.5524C35.3625 54.4911 35.3481 54.4538 35.35 54.4403L35.5413 54.4209C35.6184 54.6397 35.7601 54.8091 35.9666 54.929C36.142 55.0404 36.3483 55.078 36.5855 55.0416C36.8294 55.0042 36.9891 54.8841 37.0648 54.6813C37.1429 54.4848 37.1377 54.2714 37.0493 54.0411C36.9585 53.8046 36.8 53.628 36.5737 53.5111C36.3133 53.3599 35.9723 53.3167 35.5505 53.3814C35.1288 53.4462 34.8357 53.646 34.6712 53.981C34.5044 54.3098 34.4986 54.6764 34.6539 55.081C34.8116 55.4918 35.1233 55.813 35.589 56.0447C35.8668 56.1866 36.1287 56.2782 36.3749 56.3195C36.6276 56.3598 36.9384 56.3516 37.3074 56.295ZM36.5221 49.6141C36.417 49.3403 36.4023 49.102 36.478 48.8993C36.5602 48.6955 36.7299 48.5739 36.9869 48.5345C37.4284 48.4667 37.7375 48.6631 37.9143 49.1237C38.0887 49.578 38.0131 50.0444 37.6873 50.5227C37.8562 50.5627 38.0197 50.5706 38.1778 50.5463C38.5864 50.4836 38.8648 50.3091 39.013 50.0227C39.1589 49.7301 39.1673 49.4158 39.0383 49.0797C38.9069 48.7374 38.664 48.4682 38.3096 48.2721C37.8816 48.0479 37.404 47.9762 36.8769 48.0571C36.3497 48.138 35.9482 48.3281 35.6724 48.6275C35.2472 49.1013 35.1517 49.6432 35.3858 50.2532C35.5794 50.7573 35.8982 51.0972 36.3425 51.2729C36.7481 51.1117 37.0922 50.881 37.3746 50.5806C36.9735 50.372 36.6894 50.0498 36.5221 49.6141ZM37.0415 48.704C36.8438 48.7344 36.7164 48.8297 36.6593 48.99C36.6089 49.1494 36.629 49.3473 36.7198 49.5838C36.8751 49.9883 37.1285 50.2757 37.4799 50.4458C37.6274 50.2848 37.724 50.0821 37.7698 49.8379C37.8156 49.5936 37.7967 49.3625 37.713 49.1447C37.5816 48.8024 37.3578 48.6555 37.0415 48.704ZM43.1641 53.5574C42.861 53.604 42.5954 53.5755 42.3673 53.4721L42.6477 55.0207L41.4715 55.2012L40.5227 50.1667C40.3322 50.2157 40.2009 50.3281 40.1289 50.5039L39.9376 50.4147C40.0493 50.1603 40.2501 50.0108 40.54 49.9663C40.8365 49.9208 41.0935 49.9539 41.3108 50.0655C41.5257 50.1709 41.6863 50.344 41.7927 50.5847C41.9034 50.0734 42.1828 49.7834 42.6309 49.7146C43.079 49.6459 43.4682 49.7146 43.7986 49.921C44.1267 50.1211 44.3707 50.4296 44.5308 50.8466C44.8127 51.581 44.824 52.1922 44.5648 52.6801C44.3031 53.1619 43.8362 53.4543 43.1641 53.5574ZM42.2931 53.0881C42.4959 53.3074 42.7522 53.3933 43.0619 53.3458C43.3782 53.2972 43.5561 53.0063 43.5956 52.473C43.6417 51.9387 43.5321 51.3261 43.2669 50.6353C43.157 50.349 43.0488 50.158 42.9423 50.0623C42.8424 49.9656 42.71 49.9299 42.5453 49.9551C42.3806 49.9804 42.2451 50.1001 42.1388 50.3141C42.0392 50.5271 41.9821 50.7237 41.9675 50.9039C41.9506 51.0778 41.9469 51.1773 41.9564 51.2021L41.9465 51.2037L42.2931 53.0881ZM46.6293 49.101C47.4661 48.9726 48.0052 49.2227 48.2465 49.8513C48.397 50.2434 48.314 50.5725 47.9975 50.8385C47.6852 51.0973 47.1678 51.2855 46.4453 51.403C46.5182 51.629 46.5797 51.8074 46.6298 51.9381C46.7374 52.2182 46.8833 52.4166 47.0676 52.5333C47.2562 52.6427 47.4526 52.6818 47.6569 52.6505C47.8612 52.6191 48.0313 52.5534 48.1674 52.4535C48.3101 52.3525 48.4117 52.2446 48.4723 52.1299C48.5305 52.0089 48.5744 51.8868 48.6039 51.7637C48.6568 51.5381 48.6725 51.3973 48.651 51.3413L48.8576 51.3886C48.8761 51.4912 48.8681 51.6342 48.8338 51.8174C48.7971 51.9944 48.7397 52.1449 48.6617 52.2689C48.5837 52.3929 48.4473 52.5193 48.2525 52.648C48.0554 52.7705 47.8151 52.8535 47.5317 52.897C46.998 52.9789 46.5473 52.9229 46.1798 52.7289C45.8164 52.5276 45.5547 52.2185 45.3947 51.8015C45.1103 51.0608 45.0825 50.4522 45.3112 49.9755C45.5376 49.4926 45.9769 49.2011 46.6293 49.101ZM47.9994 49.8892C47.9206 49.6838 47.7902 49.5259 47.6082 49.4154C47.4304 49.2977 47.2131 49.2586 46.9561 49.298C46.7057 49.3364 46.5135 49.5175 46.3796 49.8412C46.2523 50.1639 46.2566 50.6114 46.3926 51.1837C47.7147 50.9742 48.2503 50.5427 47.9994 49.8892ZM51.4501 50.1406C51.2615 50.0311 51.1314 49.883 51.0597 49.6963C50.988 49.5096 50.9963 49.3403 51.0845 49.1883C51.1703 49.0302 51.3121 48.9359 51.5098 48.9056C51.5691 48.8965 51.6496 48.8973 51.7514 48.9081C51.5426 48.7094 51.2669 48.6364 50.9242 48.689C50.5816 48.7416 50.3573 48.9935 50.2514 49.4447C50.1455 49.8959 50.2479 50.5261 50.5585 51.3352C50.666 51.6153 50.8119 51.8137 50.9963 51.9304C51.1848 52.0398 51.3812 52.0789 51.5855 52.0475C51.7898 52.0162 51.9599 51.9505 52.096 51.8506C52.2387 51.7496 52.3403 51.6417 52.4009 51.527C52.4591 51.406 52.503 51.2839 52.5325 51.1608C52.5854 50.9352 52.6011 50.7943 52.5796 50.7383L52.7862 50.7857C52.8047 50.8883 52.7968 51.0312 52.7624 51.2145C52.7257 51.3914 52.6683 51.5419 52.5903 51.6659C52.5123 51.79 52.376 51.9163 52.1812 52.0451C51.984 52.1676 51.7437 52.2506 51.4604 52.2941C50.9266 52.376 50.476 52.32 50.1084 52.1259C49.7451 51.9247 49.4833 51.6155 49.3233 51.1985C49.039 50.4579 49.0111 49.8493 49.2399 49.3726C49.4728 48.8887 49.9253 48.5952 50.5974 48.492C51.0521 48.4222 51.4431 48.4776 51.7706 48.658C52.098 48.8384 52.3298 49.106 52.466 49.4607C52.552 49.6848 52.5452 49.8671 52.4457 50.0076C52.3527 50.1471 52.2106 50.2315 52.0195 50.2608C51.8284 50.2901 51.6386 50.2501 51.4501 50.1406ZM55.5546 51.3099C55.443 51.5643 55.2389 51.7142 54.9423 51.7597C54.6458 51.8052 54.3844 51.7696 54.1581 51.6527C53.9384 51.5349 53.7844 51.3608 53.696 51.1305C53.6649 51.0496 53.5874 50.7023 53.4635 50.0886L53.1482 48.3675L52.733 48.4312L52.6883 48.2601L53.1133 48.1949C53.6009 48.12 53.9529 48.0462 54.1692 47.9735L54.2968 47.9243L54.9695 51.5579C55.16 51.5088 55.2913 51.3964 55.3634 51.2206L55.5546 51.3099ZM53.0434 47.1676C52.8549 47.0581 52.7248 46.91 52.6531 46.7233C52.5814 46.5366 52.5897 46.3673 52.6779 46.2153C52.7637 46.0572 52.9055 45.9629 53.1031 45.9326C53.3008 45.9023 53.4951 45.9449 53.6861 46.0606C53.8812 46.1691 54.0146 46.3167 54.0863 46.5034C54.158 46.6901 54.1464 46.8599 54.0516 47.0129C53.9634 47.1648 53.8205 47.2559 53.6228 47.2863C53.4251 47.3166 53.232 47.2771 53.0434 47.1676ZM59.738 51.0237C59.1582 51.1127 58.7499 50.9217 58.5132 50.4505C58.4072 50.9742 58.1335 51.27 57.692 51.3377C57.2505 51.4055 56.8502 51.3351 56.491 51.1266C56.1361 50.9109 55.8714 50.5759 55.697 50.1215C55.4246 49.412 55.3953 48.8266 55.609 48.3655C55.8227 47.9043 56.2228 47.6287 56.8093 47.5387C57.2903 47.4649 57.6923 47.6305 58.0153 48.0357C57.9766 47.8439 57.9412 47.6517 57.909 47.4589C58.3967 47.384 58.7519 47.3097 58.9748 47.236L59.0926 47.1883L59.7652 50.8219C59.9557 50.7728 60.087 50.6604 60.1591 50.4846L60.3504 50.5739C60.2387 50.8283 60.0346 50.9782 59.738 51.0237ZM56.9967 50.4262C57.1042 50.7063 57.2157 50.8968 57.3312 50.9977C57.4509 51.0914 57.5898 51.1261 57.748 51.1018C57.9061 51.0775 58.0365 50.9718 58.1391 50.7847C58.2753 50.5397 58.3472 50.2453 58.3548 49.9015C58.3435 49.8175 58.3057 49.619 58.2413 49.306C58.1811 48.9857 58.1326 48.7229 58.0957 48.5177C57.9851 48.2842 57.8371 48.0894 57.6516 47.9334C57.4661 47.7773 57.2844 47.7129 57.1065 47.7402C56.7836 47.7898 56.6284 48.1036 56.641 48.6816C56.6511 49.2534 56.7697 49.835 56.9967 50.4262ZM62.6841 50.1267C62.6391 50.2457 62.5575 50.3604 62.4394 50.4708C62.3279 50.5801 62.1535 50.653 61.9163 50.6894C61.6791 50.7259 61.4506 50.6851 61.2309 50.5673C61.0112 50.4494 60.8512 50.2598 60.7509 49.9984C60.7318 49.9486 60.7073 49.8666 60.6775 49.7526L60.0298 46.2931C59.9119 45.6588 59.9049 45.1952 60.0088 44.9024C60.1193 44.6087 60.3459 44.4355 60.6886 44.3829C60.9258 44.3465 61.1524 44.4007 61.3685 44.5455C61.5911 44.6893 61.7682 44.9323 61.8996 45.2746C62.031 45.6169 62.0769 46.1272 62.0372 46.8056C62.0042 47.4829 62.0438 47.9678 62.1561 48.2603L61.9781 48.2876C61.8515 47.9577 61.8095 47.4666 61.8521 46.8142C61.8924 46.1556 61.842 45.6426 61.701 45.2754C61.615 45.0514 61.4849 44.867 61.3108 44.7224C61.1433 44.5768 60.9804 44.5161 60.8223 44.5403C60.8778 44.7032 61.042 45.4491 61.3149 46.778C61.592 48.0997 61.8345 49.3312 62.0423 50.4724C62.2268 50.4441 62.3635 50.3275 62.4524 50.1228C62.5412 49.918 62.584 49.7203 62.5806 49.5297L62.5818 49.233L62.7884 49.2803C62.802 49.3705 62.7983 49.5062 62.7772 49.6874C62.7602 49.8613 62.7292 50.0078 62.6841 50.1267Z" fill="#8B2E0A"/>
<path d="M51.8307 58.3288C51.676 58.2004 51.4345 58.0912 51.1574 58.0241C50.8803 57.9571 50.5893 57.9375 50.3461 57.9696L44.1453 58.8547C43.7365 58.9099 43.3817 59.0081 43.1017 59.1435C42.8218 59.2789 42.6223 59.4487 42.5151 59.6431C42.4078 59.8374 42.3949 60.0524 42.477 60.2753C42.5592 60.4983 42.7348 60.7248 42.9936 60.9416C43.244 61.1595 43.5735 61.3643 43.9629 61.5438C44.3522 61.7233 44.7934 61.8741 45.2608 61.9871C45.7281 62.1002 46.2122 62.1733 46.6846 62.2023C47.157 62.2313 47.6083 62.2154 48.012 62.1557L54.2288 61.2844C54.4673 61.2483 54.6363 61.1637 54.6999 61.0485C54.7635 60.9332 54.7167 60.7964 54.5695 60.667L51.8307 58.3288ZM69.5065 58.5542L66.7677 56.216C66.6162 56.089 66.3781 55.9808 66.1044 55.9146C65.8308 55.8484 65.5434 55.8295 65.304 55.8618L54.8918 57.3346C54.6596 57.3718 54.4955 57.4555 54.433 57.5686C54.3706 57.6818 54.4145 57.8158 54.5558 57.9433L57.2947 60.2815C57.4461 60.4085 57.6843 60.5167 57.9579 60.5829C58.2316 60.6491 58.519 60.668 58.7584 60.6357L69.1706 59.1629C69.4028 59.1258 69.5669 59.042 69.6293 58.9289C69.6918 58.8157 69.6478 58.6817 69.5065 58.5542ZM97.9915 59.6797C98.4722 59.6126 98.8889 59.4953 99.2176 59.3346C99.5463 59.1739 99.7805 58.973 99.9067 58.7434C100.156 58.2818 99.9558 57.7335 99.3497 57.2189L90.8109 49.9291C90.2105 49.4136 89.252 48.9726 88.1458 48.7028C87.594 48.5691 87.0226 48.4821 86.4644 48.4469C85.9062 48.4116 85.3723 48.4288 84.8934 48.4974L73.0415 50.1739C72.4887 50.2522 72.0223 50.3969 71.6777 50.5971C71.3331 50.7973 71.1195 51.0476 71.0529 51.329L70.0783 55.3709C69.9504 55.8848 70.2257 56.4586 70.8598 57C71.494 57.5413 72.4501 58.0188 73.5744 58.3556L82.395 61.012C83.0081 61.1973 83.6641 61.3246 84.313 61.3842C84.9618 61.4438 85.5866 61.4342 86.1396 61.3561L97.9915 59.6797ZM76.3558 53.1442C75.9421 53.0418 75.5829 52.8772 75.3532 52.6848C75.2383 52.589 75.1603 52.4889 75.1237 52.3903C75.0871 52.2917 75.0927 52.1967 75.1401 52.1108C75.1875 52.0249 75.2758 51.9499 75.3997 51.8901C75.5237 51.8304 75.6809 51.7872 75.8619 51.763L83.1376 50.7339C83.4985 50.6906 83.9263 50.7231 84.3309 50.8243C84.7356 50.9256 85.0854 51.0878 85.3068 51.2768C85.5282 51.4658 85.6038 51.6669 85.5177 51.8375C85.4317 52.0082 85.1906 52.1353 84.8453 52.1919L77.5697 53.221C77.2044 53.267 76.772 53.2397 76.3558 53.1442ZM77.3602 56.6497C76.9491 56.545 76.5919 56.3813 76.3575 56.1902C76.1364 55.9952 76.0664 55.7892 76.1622 55.6157C76.258 55.4421 76.5121 55.3145 76.871 55.2598L89.7016 53.4851C90.0631 53.4341 90.4995 53.4619 90.9151 53.5624C91.3307 53.663 91.6914 53.828 91.9181 54.0213C92.0329 54.117 92.111 54.2172 92.1476 54.3157C92.1842 54.4143 92.1786 54.5093 92.1312 54.5953C92.0838 54.6812 91.9955 54.7562 91.8715 54.8159C91.7475 54.8756 91.5904 54.9189 91.4094 54.943L78.6802 56.7916C78.4773 56.8091 78.2562 56.8056 78.0295 56.7812C77.8029 56.7568 77.5754 56.7121 77.3602 56.6497ZM92.1566 58.4849L84.8809 59.514C84.703 59.5405 84.5037 59.5474 84.295 59.5342C84.0864 59.521 83.8728 59.488 83.6671 59.4372C83.4608 59.3877 83.2659 59.3216 83.0937 59.2427C82.9215 59.1638 82.7756 59.0737 82.6644 58.9778C82.4382 58.7844 82.3648 58.5788 82.4602 58.4059C82.5555 58.2331 82.812 58.1073 83.1731 58.056L90.4488 57.0269C90.8097 56.9836 91.2375 57.016 91.6422 57.1173C92.0468 57.2186 92.3967 57.3808 92.618 57.5698C92.8394 57.7588 92.915 57.9599 92.829 58.1305C92.7429 58.3012 92.5018 58.4283 92.1566 58.4849Z" fill="#8B2E0A"/>
</svg>
